<svg width="106" height="107" viewBox="0 0 106 107" fill="none" xmlns="http://www.w3.org/2000/svg">
<g filter="url(#filter0_d_846_582)">
<path d="M78.5241 12.0275C78.0442 11.8119 77.7056 11.7216 77.5084 11.7566C77.3048 11.7933 77.0676 12.0435 76.7971 12.5074L73.6094 17.972C73.3552 18.4078 73.2555 18.7303 73.3105 18.9392C73.3632 19.1521 73.6081 19.4076 74.0453 19.7055L73.9123 19.9334L70.4393 17.9075L70.5722 17.6795C71.0381 17.9191 71.3852 18.0224 71.6135 17.9895C71.8377 17.9541 72.0688 17.7325 72.3068 17.3246L75.7498 11.4222C75.8291 11.2863 75.8701 11.1654 75.8728 11.0598C75.8691 10.9558 75.7952 10.8484 75.6509 10.7374C75.5659 10.6717 75.4746 10.6078 75.3769 10.5455C75.2753 10.4808 75.0845 10.3668 74.8046 10.2035C73.7129 9.56672 72.9226 9.22631 72.4337 9.18232C71.9449 9.13833 71.3047 9.38127 70.5132 9.91113L70.2013 9.72918L72.0433 7.94965L78.6536 11.8056L78.5241 12.0275Z" fill="#333333"/>
<path d="M68.0171 9.82432C67.7534 10.7071 67.2513 11.3688 66.5109 11.8096C65.7647 12.2534 64.9502 12.3435 64.0674 12.0798C63.1891 11.8174 62.5478 11.3118 62.1434 10.5629C61.739 9.81394 61.6799 8.96041 61.9661 8.00226C62.2298 7.11952 62.7385 6.43559 63.4922 5.95048C64.2459 5.46536 65.0664 5.35532 65.9535 5.62034C66.8052 5.87475 67.4326 6.40281 67.8358 7.20451C68.2389 8.00621 68.2993 8.87948 68.0171 9.82432ZM64.373 11.7362C64.7234 11.8409 65.0617 11.8164 65.3879 11.6625C65.9521 11.3914 66.3819 10.7612 66.6774 9.77201C66.9133 8.98243 66.9558 8.19307 66.805 7.40393C66.6498 6.61347 66.255 6.1235 65.6207 5.93401C65.1238 5.7856 64.6741 5.90009 64.2715 6.27748C63.8644 6.65355 63.5502 7.21197 63.3289 7.95277C63.0997 8.72017 63.0545 9.49424 63.1933 10.275C63.3321 11.0557 63.7254 11.5428 64.373 11.7362Z" fill="#333333"/>
<path d="M59.1827 4.51439C58.7552 4.5098 58.4669 4.55604 58.3179 4.6531C58.1684 4.75477 58.0756 4.98991 58.0396 5.35852L57.7348 8.47556C57.6902 8.93171 57.7022 9.26082 57.7708 9.4629C57.8343 9.66914 57.979 9.7833 58.2048 9.80538C58.2509 9.80988 58.3137 9.80905 58.3934 9.80289C58.468 9.80088 58.5477 9.79472 58.6325 9.7844L58.6102 10.0125C58.3385 10.0789 58.0597 10.147 57.7738 10.2168C57.4879 10.2865 57.2899 10.3369 57.1799 10.368C56.9409 10.433 56.694 10.5089 56.439 10.5956C56.4067 10.5924 56.3894 10.5791 56.387 10.5556C56.3801 10.5317 56.3802 10.4829 56.3874 10.4091L56.4983 9.27566C56.1633 9.6569 55.8486 9.94942 55.5542 10.1532C55.2552 10.3566 54.9583 10.4438 54.6634 10.415C54.4284 10.392 54.2442 10.3019 54.1107 10.1446C53.9768 9.99198 53.9202 9.80968 53.9409 9.59773C53.9594 9.40882 54.0325 9.25549 54.1603 9.13774C54.2835 9.01954 54.4304 8.96878 54.6008 8.98545C54.7759 9.00257 54.9454 9.10055 55.1094 9.27939C55.2687 9.45778 55.399 9.55193 55.5004 9.56184C55.6617 9.57761 55.8726 9.46567 56.1333 9.22602C56.3935 8.99097 56.5371 8.73522 56.5642 8.45877L56.869 5.34173C56.9078 4.94548 56.8426 4.66001 56.6737 4.48533C56.5042 4.31526 56.2048 4.21388 55.7754 4.18119L55.7977 3.95311L59.205 4.28632L59.1827 4.51439Z" fill="#333333"/>
<path d="M48.6518 10.5116C48.0016 10.5695 47.412 10.3944 46.8829 9.98601C46.3543 9.58228 46.0531 8.9677 45.9796 8.14228L50.3718 7.75081C50.2304 6.6851 49.9188 5.92737 49.4372 5.47762C48.9555 5.02787 48.415 4.8297 47.8155 4.88313C47.3313 4.92629 46.9345 5.08947 46.6251 5.37268C46.3157 5.6559 46.0411 6.04291 45.8013 6.53372L45.5518 6.47229C45.6887 5.86981 45.9955 5.29634 46.4722 4.75187C46.9443 4.20782 47.5561 3.9023 48.3078 3.83531C49.1747 3.75804 49.8748 4.02564 50.4081 4.63811C50.9368 5.251 51.2392 5.98398 51.3152 6.83707C51.3979 7.76394 51.1948 8.58845 50.7061 9.31061C50.2173 10.0328 49.5326 10.4331 48.6518 10.5116ZM49.008 9.9709C49.5337 9.92405 49.9141 9.65542 50.1493 9.16502C50.2746 8.90286 50.3528 8.57984 50.3836 8.19596L47.4647 8.45612C47.5565 8.91273 47.6747 9.24846 47.8194 9.46332C48.0815 9.84897 48.4777 10.0182 49.008 9.9709Z" fill="#333333"/>
<path d="M41.325 4.98865C40.9963 5.14159 40.7902 5.27984 40.7068 5.40341C40.5781 5.59251 40.5821 5.87651 40.7187 6.25542L41.9361 9.63293C42.0523 9.95522 42.172 10.1507 42.2952 10.2195C42.414 10.2899 42.5715 10.2897 42.7675 10.2191C42.8589 10.1861 42.927 10.1566 42.9718 10.1306C43.0122 10.1062 43.059 10.0722 43.1121 10.0284L43.1945 10.2571L42.7807 10.5834C42.6312 10.7012 42.3894 10.9041 42.0551 11.1919C41.7209 11.4797 41.5429 11.6275 41.5211 11.6353C41.4993 11.6432 41.4823 11.637 41.4701 11.6168C41.4579 11.5966 41.4408 11.556 41.4189 11.495L41.101 10.6131C40.8111 11.1605 40.536 11.5647 40.2758 11.8258C40.0172 12.0913 39.7224 12.2837 39.3914 12.403C38.9428 12.5647 38.5307 12.541 38.1552 12.3319C37.9561 12.2166 37.7599 12.0339 37.5664 11.7838C37.3618 12.2266 37.168 12.5696 36.985 12.8127C36.6686 13.2319 36.2948 13.5192 35.8636 13.6746C35.1624 13.9274 34.5914 13.8109 34.1506 13.3251C33.8994 13.0515 33.6482 12.5663 33.397 11.8694L32.4197 9.15826C32.3083 8.84904 32.1646 8.66214 31.9888 8.59757C31.8102 8.53893 31.536 8.55655 31.1663 8.65044L31.1051 8.48058L34.0515 7.41855L34.1174 7.60147C33.751 7.77289 33.5303 7.93859 33.4551 8.09857C33.3755 8.26012 33.4009 8.52164 33.5312 8.88313L34.5461 11.6988C34.6984 12.1213 34.8564 12.4162 35.02 12.5836C35.3099 12.8826 35.69 12.9474 36.1604 12.7778C36.4435 12.6758 36.6907 12.4809 36.9019 12.1931C37.0238 12.0261 37.1592 11.7805 37.308 11.4562L36.1023 8.11135C35.9752 7.75857 35.8176 7.5127 35.6298 7.37373C35.4375 7.23634 35.1387 7.23333 34.7333 7.36469L34.6721 7.19484L37.6707 6.11396L37.7319 6.28382C37.337 6.48522 37.1096 6.68037 37.0498 6.86927C36.9899 7.05816 37.0644 7.44223 37.2732 8.02149L37.9325 9.8507C38.1743 10.5214 38.3842 10.9674 38.5624 11.1886C38.86 11.5636 39.2418 11.6671 39.7078 11.4991C39.9735 11.4034 40.2081 11.2351 40.4117 10.9944C40.6168 10.7581 40.775 10.487 40.8862 10.1812L39.5981 6.60766C39.4788 6.27666 39.3398 6.06841 39.181 5.98293C39.0179 5.89901 38.7417 5.92474 38.3525 6.0601L38.2913 5.89025L41.2638 4.81879L41.325 4.98865Z" fill="#333333"/>
<path d="M27.605 21.7319C27.736 21.8817 27.7965 22.0564 27.7865 22.2558C27.7765 22.4553 27.6948 22.6221 27.5415 22.7562C27.3916 22.8873 27.2172 22.9445 27.0182 22.9279C26.8187 22.9179 26.6519 22.8362 26.5178 22.6829C26.3867 22.5331 26.328 22.3569 26.3415 22.1544C26.3546 21.9584 26.436 21.7949 26.5859 21.6638C26.7392 21.5297 26.9138 21.4692 27.1098 21.4823C27.3088 21.4988 27.4739 21.582 27.605 21.7319ZM22.4992 14.5453C22.1568 14.9063 21.9765 15.1748 21.9582 15.3507C21.9429 15.5302 22.1136 15.8237 22.4702 16.2314L24.6512 18.7245C24.8494 18.951 25.0022 19.0941 25.1098 19.1538C25.287 19.2509 25.4593 19.2263 25.6265 19.08C25.6648 19.0465 25.7001 19.0095 25.7324 18.969C25.7611 18.9315 25.8413 18.8122 25.9728 18.611L26.1145 18.773L25.9538 19.0428C25.5178 19.7749 25.2237 20.2966 25.0717 20.608C25.0107 20.7351 24.9663 20.8109 24.9384 20.8353C24.9101 20.817 24.8838 20.7939 24.8594 20.766L21.5765 17.0133C21.229 16.616 20.964 16.408 20.7815 16.3893C20.5956 16.3736 20.3214 16.4996 19.959 16.7674L19.831 16.6211L22.3712 14.399L22.4992 14.5453Z" fill="#333333"/>
<path d="M16.7366 21.7736C16.4147 21.6739 16.1189 21.6682 15.8493 21.7567C15.5804 21.8517 15.3459 22.0266 15.1458 22.2815C14.837 22.6747 14.7687 23.1627 14.941 23.7453C15.1141 24.3345 15.5502 24.9036 16.2492 25.4526C16.9192 25.9787 17.5342 26.2262 18.0943 26.1951C18.6515 26.1677 19.0802 25.9628 19.3805 25.5805C19.5921 25.311 19.7013 24.9995 19.7082 24.6459C19.7188 24.2951 19.644 24.0568 19.4838 23.931L16.7366 21.7736ZM14.8399 17.4764C14.593 17.8358 14.4957 18.1096 14.548 18.2978C14.5975 18.4897 14.7551 18.69 15.0209 18.8988L20.264 23.0161C20.5407 23.2335 20.7445 23.3375 20.8753 23.3284C21.0068 23.3258 21.1455 23.2316 21.2914 23.0459C21.3228 23.0059 21.351 22.9662 21.376 22.9269C21.3981 22.8913 21.4294 22.8364 21.4699 22.7623L21.6502 22.9038L21.412 23.5557C21.4014 23.5767 21.2396 24.0413 20.9268 24.9494C20.9125 24.9676 20.8934 24.9732 20.8695 24.9662C20.8463 24.9656 20.8238 24.9568 20.802 24.9397L20.0647 24.3606C20.1163 24.7897 20.1288 25.141 20.1024 25.4145C20.0489 25.9023 19.8864 26.3192 19.6148 26.6651C19.2202 27.1675 18.6665 27.4303 17.9538 27.4534C17.2419 27.483 16.5145 27.2061 15.7718 26.6228C15.0436 26.0509 14.5543 25.3135 14.3039 24.4105C14.0506 23.5112 14.1828 22.732 14.7003 22.0729C14.8604 21.869 15.0246 21.7125 15.1928 21.6032C15.4523 21.4302 15.7611 21.3255 16.1194 21.289L14.3335 19.8865C13.9658 19.5977 13.6928 19.4805 13.5147 19.5349C13.3366 19.5893 13.0743 19.8071 12.7278 20.1884L12.5367 20.0383L14.6597 17.3348L14.8399 17.4764Z" fill="#333333"/>
<path d="M12.685 29.2161L12.5833 29.4214C12.0631 29.2825 11.6364 29.2312 11.3032 29.2676C10.6947 29.3278 10.2517 29.6379 9.97424 30.1979C9.82007 30.509 9.78384 30.7959 9.86553 31.0585C9.94931 31.3274 10.1281 31.5296 10.4019 31.6653C10.5761 31.7516 10.7698 31.783 10.983 31.7595C11.1961 31.736 11.4442 31.6315 11.7272 31.4463L12.4707 30.9467C12.9974 30.5721 13.4592 30.3334 13.8564 30.2305C14.2535 30.1276 14.6409 30.1697 15.0184 30.3568C15.483 30.587 15.7824 30.942 15.9166 31.4219C16.0508 31.9017 15.9936 32.3926 15.7449 32.8946C15.6359 33.1144 15.4752 33.3345 15.2628 33.5547C15.0483 33.7791 14.9328 33.9078 14.9163 33.941C14.8793 34.0157 14.863 34.0748 14.8673 34.1182C14.8716 34.1617 14.8904 34.2072 14.9237 34.2547L14.8497 34.404L13.0921 33.5873L13.1876 33.3944C13.6311 33.5109 13.9998 33.554 14.2937 33.524C14.836 33.4724 15.2273 33.2039 15.4678 32.7185C15.6117 32.4282 15.6356 32.1558 15.5394 31.9015C15.4433 31.6472 15.2749 31.4604 15.0343 31.3412C14.6527 31.1521 14.1707 31.2698 13.5884 31.6942L12.7396 32.2967C11.8206 32.9418 11.0416 33.1061 10.4028 32.7895C9.91332 32.547 9.60449 32.164 9.47631 31.6407C9.34608 31.1215 9.42793 30.5653 9.72187 29.9721C9.8452 29.7232 10.0265 29.4617 10.2656 29.1875C10.5048 28.9133 10.6388 28.7472 10.6676 28.6892C10.6922 28.6394 10.6952 28.5866 10.6763 28.5307C10.6616 28.477 10.6345 28.4274 10.595 28.382L10.6752 28.2202L12.685 29.2161Z" fill="#333333"/>
<path d="M12.8906 39.6816L8.5893 38.5631C8.28462 38.4839 8.02936 38.4629 7.82352 38.5003C7.43989 38.5775 7.19041 38.8379 7.07506 39.2815C6.99584 39.5862 7.01917 39.9104 7.14507 40.254C7.21397 40.4489 7.32486 40.6571 7.47773 40.8787L11.1608 41.8364C11.5058 41.9261 11.7495 41.9177 11.892 41.8113C12.0345 41.7048 12.1694 41.4529 12.2966 41.0554L12.5184 41.1131L11.9539 43.2839L7.22244 42.0536C6.91776 41.9744 6.69319 41.9734 6.54874 42.0506C6.4076 42.1335 6.29772 42.3537 6.21912 42.7112L6.03094 42.6622C6.02781 42.3983 6.02347 42.2035 6.01792 42.0776C6.01685 41.953 6.00704 41.7424 5.9885 41.4457C5.97847 41.3188 5.94854 41.0383 5.89873 40.6044C5.90456 40.582 5.91925 40.5715 5.94282 40.5728C5.96191 40.573 5.98489 40.5766 6.01178 40.5836L7.09384 40.8649C6.81013 40.4659 6.61354 40.1182 6.50404 39.8218C6.33424 39.3711 6.30468 38.9329 6.41536 38.5072C6.51672 38.1174 6.75116 37.7861 7.11866 37.5134C7.48285 37.235 7.98755 37.1796 8.63275 37.3474L12.1209 38.2544C12.4793 38.3476 12.7388 38.3338 12.8994 38.2129C13.0012 38.1341 13.1098 37.9375 13.225 37.6231L13.4132 37.672L12.8906 39.6816Z" fill="#333333"/>
<path d="M4.93122 46.355C4.96691 46.7158 5.02928 46.956 5.11833 47.0755C5.25427 47.2595 5.52362 47.3496 5.92637 47.346L9.51646 47.3133C9.85903 47.3102 10.0831 47.2618 10.1888 47.1683C10.2944 47.0794 10.3463 46.9307 10.3444 46.7224C10.3436 46.6252 10.3382 46.5512 10.3285 46.5003C10.3188 46.4541 10.3021 46.3987 10.2784 46.3341L10.5214 46.3319L10.6926 46.8304C10.7545 47.0104 10.866 47.3056 11.0271 47.7162C11.1883 48.1268 11.2689 48.3437 11.2691 48.3668C11.2694 48.39 11.2579 48.404 11.2348 48.4088C11.2117 48.4136 11.1677 48.4164 11.1029 48.4169L10.1655 48.4255C10.5863 48.88 10.8769 49.2732 11.0374 49.6051C11.2024 49.9369 11.2865 50.2788 11.2897 50.6306C11.2941 51.1074 11.1355 51.4885 10.814 51.7738C10.6395 51.9236 10.4022 52.0484 10.1021 52.1484C10.4525 52.4878 10.7121 52.7841 10.8811 53.0372C11.1721 53.4743 11.3197 53.9221 11.3239 54.3804C11.3307 55.1257 11.032 55.6261 10.4278 55.8816C10.0865 56.0283 9.54553 56.1049 8.80483 56.1117L5.92304 56.1379C5.59436 56.1409 5.37049 56.2147 5.25143 56.3593C5.13704 56.5085 5.06306 56.7731 5.02948 57.153L4.84893 57.1547L4.82043 54.0229L5.01487 54.0211C5.05557 54.4235 5.13898 54.6867 5.26511 54.8105C5.39128 54.939 5.64649 55.0015 6.03073 54.998L9.02362 54.9708C9.47267 54.9667 9.80323 54.9151 10.0153 54.8159C10.3933 54.6412 10.5801 54.3038 10.5755 53.8038C10.5728 53.5029 10.4706 53.2052 10.2688 52.9108C10.1515 52.7405 9.96442 52.5316 9.70753 52.2839L6.15216 52.3163C5.77718 52.3197 5.49307 52.3871 5.29981 52.5185C5.1066 52.6545 5.00499 52.9355 4.99497 53.3616L4.81443 53.3632L4.78542 50.1759L4.96597 50.1742C5.02553 50.6135 5.13455 50.8926 5.29304 51.0116C5.45154 51.1305 5.83864 51.1871 6.45435 51.1815L8.39868 51.1639C9.11161 51.1574 9.6019 51.1066 9.86956 51.0116C10.3219 50.8547 10.5457 50.5286 10.5412 50.0332C10.5387 49.7508 10.4574 49.4738 10.2976 49.2021C10.1423 48.9303 9.93873 48.6914 9.68685 48.4854L5.88844 48.52C5.53661 48.5232 5.29412 48.5855 5.16096 48.7071C5.02784 48.8333 4.96085 49.1025 4.95997 49.5145L4.77942 49.5162L4.75067 46.3566L4.93122 46.355Z" fill="#333333"/>
<path d="M14.7423 67.6153C14.8782 67.9247 14.9352 68.2385 14.9132 68.5566C14.8986 68.7653 14.8474 68.9825 14.7595 69.2082L16.7813 68.3199C17.0398 68.2063 17.2048 68.0984 17.2762 67.9962C17.3495 67.8983 17.3386 67.7413 17.2437 67.5251C17.2213 67.4742 17.1996 67.4307 17.1786 67.3944C17.1576 67.3581 17.1119 67.277 17.0415 67.1512L17.2513 67.0591L17.6139 67.5217C17.7485 67.6901 17.8853 67.8576 18.0242 68.0241C18.1631 68.1906 18.2896 68.3347 18.4038 68.4565C18.4548 68.515 18.5444 68.6096 18.6727 68.7404L18.6767 68.7841L18.0036 69.0647C17.7601 69.1666 17.5082 69.2723 17.2478 69.3816C16.9916 69.4891 16.7385 69.5978 16.4884 69.7077L11.2886 71.9772C11.0131 72.0983 10.8351 72.2169 10.7547 72.3331C10.6743 72.4494 10.6983 72.6537 10.8268 72.9462C10.8473 72.9928 10.8678 73.0394 10.8883 73.086C10.913 73.1308 10.9399 73.1746 10.9688 73.2175L10.759 73.3097C10.7394 73.288 10.4984 73.0273 10.0361 72.5275L9.22241 71.6942L9.26007 71.6245L10.0421 71.2809C9.67924 71.1572 9.40454 71.0326 9.21799 70.9073C8.89131 70.6817 8.63858 70.3654 8.4598 69.9585C8.14321 69.238 8.16383 68.5311 8.52167 67.8378C8.88561 67.147 9.43421 66.6405 10.1675 66.3183C11.0872 65.9142 11.9929 65.8348 12.8845 66.0802C13.7822 66.328 14.4015 66.8397 14.7423 67.6153ZM9.40343 70.2417C9.54869 70.5723 9.7635 70.7965 10.0479 70.9143C10.3322 71.0321 10.5613 71.0528 10.7351 70.9764L13.4625 69.7781C14.0135 69.536 14.3362 69.2172 14.4305 68.8218C14.5308 68.4288 14.5196 68.0924 14.3967 67.8127C14.162 67.2786 13.7422 66.9676 13.1371 66.8794C12.5363 66.7895 11.8904 66.8962 11.1995 67.1998C10.5171 67.4996 9.97781 67.9237 9.58157 68.472C9.18719 69.0245 9.12781 69.6144 9.40343 70.2417Z" fill="#333333"/>
<path d="M14.6953 74.9164C15.4383 74.3718 16.2381 74.1472 17.0945 74.2428C17.9573 74.3393 18.6611 74.7591 19.2057 75.5022C19.7476 76.2415 19.9537 77.0318 19.8241 77.873C19.6944 78.7142 19.2264 79.4304 18.4198 80.0215C17.6767 80.5661 16.8583 80.8044 15.9646 80.7362C15.0709 80.668 14.3503 80.2605 13.803 79.5137C13.2775 78.7968 13.096 77.9971 13.2585 77.1146C13.421 76.2321 13.8999 75.4993 14.6953 74.9164ZM18.7547 75.5917C18.5385 75.2967 18.2539 75.1121 17.901 75.0378C17.2876 74.9134 16.5645 75.1564 15.7318 75.7667C15.0671 76.2539 14.5568 76.8576 14.2007 77.5777C13.8473 78.3017 13.8663 78.9306 14.2577 79.4646C14.5642 79.8828 14.9919 80.063 15.5407 80.0051C16.0922 79.951 16.6798 79.6954 17.3034 79.2384C17.9494 78.7649 18.4526 78.175 18.8132 77.4688C19.1738 76.7625 19.1543 76.1368 18.7547 75.5917Z" fill="#333333"/>
<path d="M18.6811 84.6493C19.024 84.9129 19.2955 85.0496 19.4956 85.0593C19.6989 85.0656 19.9318 84.9284 20.1943 84.6478L24.8285 79.6924C25.0372 79.4693 25.1625 79.298 25.2043 79.1787C25.2695 78.9735 25.199 78.7744 24.9927 78.5815C24.9454 78.5372 24.8882 78.4933 24.8213 78.4497C24.7577 78.4092 24.6741 78.3596 24.5706 78.3008L24.7272 78.1334C25.2975 78.4386 25.9987 78.7902 26.8309 79.1881C26.8546 79.2103 26.8586 79.233 26.843 79.2565C26.8308 79.2831 26.7931 79.3302 26.7298 79.3979L21.0426 85.4791C20.7675 85.7733 20.6395 86.0118 20.6587 86.1946C20.6811 86.374 20.8402 86.6241 21.1359 86.9451L21.0031 87.0871L18.5482 84.7913L18.6811 84.6493Z" fill="#333333"/>
<path d="M25.8679 86.9865C26.3616 86.2087 27.0246 85.7083 27.857 85.4854C28.6957 85.2611 29.504 85.3958 30.2819 85.8895C31.0558 86.3807 31.5356 87.0417 31.7212 87.8723C31.9068 88.703 31.7317 89.5404 31.1958 90.3847C30.7021 91.1625 30.0267 91.6824 29.1695 91.9444C28.3123 92.2064 27.4928 92.0893 26.7111 91.5931C25.9606 91.1168 25.5003 90.4381 25.3303 89.557C25.1602 88.6759 25.3394 87.8191 25.8679 86.9865ZM29.8944 86.1371C29.5856 85.9411 29.2534 85.8728 28.8977 85.9321C28.281 86.0397 27.6961 86.5294 27.1429 87.401C26.7013 88.0968 26.4458 88.8448 26.3764 89.6453C26.311 90.4481 26.5577 91.027 27.1167 91.3817C27.5544 91.6596 28.0184 91.6717 28.5084 91.4179C29.0024 91.1667 29.4565 90.7147 29.8708 90.0619C30.3 89.3857 30.5539 88.6531 30.6325 87.864C30.7111 87.0749 30.4651 86.4993 29.8944 86.1371Z" fill="#333333"/>
<path d="M32.9269 94.498C33.337 94.6187 33.627 94.6525 33.7968 94.5996C33.9683 94.5424 34.1215 94.3413 34.2564 93.9964L35.397 91.0796C35.5639 90.6527 35.6418 90.3327 35.6307 90.1196C35.6256 89.9038 35.5174 89.7547 35.3061 89.6721C35.263 89.6552 35.2023 89.6389 35.1239 89.6232C35.0515 89.6048 34.9732 89.5891 34.8888 89.576L34.9723 89.3626C35.2518 89.3724 35.5386 89.3827 35.8327 89.3933C36.1268 89.4039 36.331 89.4092 36.4453 89.4092C36.693 89.4115 36.9513 89.4057 37.2202 89.3916C37.2504 89.4034 37.2634 89.4209 37.2593 89.4441C37.2595 89.4691 37.2461 89.516 37.2192 89.585L36.8044 90.6457C37.2304 90.3698 37.6127 90.1739 37.9514 90.0578C38.2944 89.9433 38.6039 89.9401 38.8798 90.048C39.0997 90.134 39.2525 90.2708 39.3382 90.4584C39.4256 90.6417 39.4306 90.8325 39.353 91.0308C39.2839 91.2076 39.1718 91.3353 39.0168 91.4139C38.8661 91.4941 38.711 91.5031 38.5515 91.4407C38.3876 91.3766 38.2512 91.2362 38.142 91.0196C38.0372 90.8046 37.9373 90.6786 37.8425 90.6415C37.6916 90.5825 37.4581 90.6329 37.1421 90.7926C36.8278 90.9481 36.6201 91.1552 36.5189 91.4139L35.3783 94.3307C35.2333 94.7015 35.2184 94.9939 35.3336 95.208C35.4504 95.4177 35.711 95.5966 36.1153 95.7448L36.0319 95.9583L32.8434 94.7115L32.9269 94.498Z" fill="#333333"/>
<path d="M47.7351 96.4512L47.964 96.463C48.0432 96.9955 48.1657 97.4074 48.3315 97.6987C48.6285 98.2332 49.0891 98.5165 49.7133 98.5486C50.06 98.5665 50.3377 98.4857 50.5462 98.3064C50.7597 98.1227 50.8742 97.8783 50.8899 97.5731C50.8999 97.3789 50.8518 97.1887 50.7455 97.0024C50.6391 96.8162 50.4448 96.63 50.1623 96.444L49.4084 95.9601C48.8554 95.6257 48.4528 95.2967 48.2006 94.9732C47.9484 94.6496 47.8331 94.2774 47.8547 93.8567C47.8814 93.3389 48.0882 92.923 48.4752 92.6092C48.8622 92.2953 49.3354 92.1528 49.8949 92.1816C50.1399 92.1942 50.4057 92.2542 50.6922 92.3617C50.9834 92.4694 51.1474 92.5242 51.1844 92.5261C51.2676 92.5304 51.3283 92.5219 51.3665 92.5007C51.4047 92.4795 51.439 92.4442 51.4693 92.3947L51.6358 92.4033L51.5847 94.3407L51.3697 94.3296C51.3004 93.8764 51.1935 93.5209 51.0491 93.2632C50.7863 92.7861 50.3844 92.5336 49.8434 92.5058C49.5198 92.4891 49.2604 92.5754 49.0652 92.7647C48.87 92.954 48.7656 93.1827 48.7518 93.4509C48.7299 93.8762 49.0294 94.2718 49.6503 94.6375L50.5404 95.177C51.4976 95.764 51.9579 96.4135 51.9212 97.1255C51.8931 97.6711 51.6644 98.1067 51.2351 98.4323C50.8104 98.7581 50.2675 98.904 49.6063 98.87C49.3289 98.8557 49.0169 98.7933 48.6703 98.6827C48.3237 98.5722 48.118 98.5152 48.0532 98.5119C47.9978 98.509 47.9481 98.5273 47.9044 98.5668C47.8609 98.6017 47.8261 98.6462 47.8002 98.7005L47.6199 98.6912L47.7351 96.4512Z" fill="#333333"/>
<path d="M56.0781 89.6715C56.0539 89.4739 56.102 89.2954 56.2223 89.1361C56.3427 88.9767 56.504 88.8846 56.7062 88.8598C56.9037 88.8356 57.0802 88.8862 57.2355 89.0117C57.3949 89.1321 57.487 89.2934 57.5118 89.4956C57.5361 89.6932 57.4857 89.8719 57.3607 90.0318C57.2398 90.1866 57.0805 90.2761 56.8829 90.3004C56.6808 90.3252 56.5023 90.2771 56.3475 90.1562C56.1922 90.0306 56.1024 89.8691 56.0781 89.6715ZM56.2642 98.4852C56.7502 98.3789 57.0503 98.2581 57.1643 98.1229C57.2777 97.983 57.3014 97.6443 57.2354 97.1066L56.832 93.8188C56.7953 93.5202 56.7493 93.3159 56.6938 93.2061C56.6018 93.0262 56.4455 92.9497 56.2249 92.9768C56.1743 92.983 56.1244 92.9938 56.0749 93.0092C56.0301 93.024 55.8968 93.0777 55.6749 93.1702L55.6487 92.9566L55.9332 92.8237C56.7052 92.4631 57.2416 92.1967 57.5423 92.0245C57.6642 91.9536 57.7435 91.9159 57.7803 91.9114C57.7934 91.9424 57.8022 91.9763 57.8068 92.0131L58.4141 96.962C58.4784 97.4858 58.5807 97.8068 58.7211 97.9248C58.8662 98.0423 59.1638 98.092 59.614 98.0741L59.6377 98.2671L56.2879 98.6782L56.2642 98.4852Z" fill="#333333"/>
<path d="M64.982 90.4297L65.1184 90.9107L63.7555 91.2973L64.8335 95.1492C64.9295 95.4877 65.0311 95.7356 65.1382 95.8929C65.3323 96.1699 65.5852 96.2642 65.897 96.1758C66.0573 96.1303 66.1846 96.0533 66.279 95.9447C66.3778 95.8349 66.4795 95.6761 66.5842 95.4684L66.7996 95.5661L66.7094 95.8082C66.5663 96.1857 66.3838 96.4756 66.1621 96.678C65.9404 96.8805 65.7093 97.0158 65.4688 97.084C64.9432 97.233 64.5206 97.1003 64.2009 96.6857C64.0265 96.4608 63.8755 96.1235 63.7479 95.6737L62.5997 91.6251L61.8715 91.8316C61.8454 91.8245 61.8238 91.8162 61.8067 91.8067C61.794 91.7958 61.7844 91.7793 61.7781 91.757C61.7655 91.7125 61.7649 91.6765 61.7764 91.6492C61.7911 91.6162 61.8393 91.5399 61.9209 91.4206C62.1562 91.0795 62.3186 90.8121 62.408 90.6183C62.5006 90.4188 62.7026 89.9092 63.0138 89.0895C63.0717 89.0731 63.1064 89.068 63.1178 89.0744C63.1337 89.0795 63.1499 89.1111 63.1663 89.169L63.6324 90.8125L64.982 90.4297Z" fill="#333333"/>
<path d="M77.5202 86.9399C77.1791 87.3849 76.925 87.7932 76.7578 88.1646C76.4386 88.8803 76.4262 89.4544 76.7206 89.8869C76.9576 90.2351 77.247 90.4134 77.5886 90.4216C77.8108 90.4272 78.0138 90.3674 78.1975 90.2424C78.4501 90.0705 78.643 89.8355 78.7762 89.5376C78.9132 89.2371 78.9075 88.9778 78.759 88.7596L77.5202 86.9399ZM75.9684 90.9786C75.5906 90.4237 75.5529 89.7717 75.8551 89.0227C76.0508 88.5534 76.5408 87.7635 77.3249 86.6529L76.9927 86.1649C76.727 85.7746 76.5037 85.5289 76.323 85.4279C76.0183 85.2601 75.6612 85.3156 75.2517 85.5943C75.0566 85.7272 74.9048 85.9033 74.7965 86.1226C74.6908 86.3458 74.6992 86.5473 74.8216 86.7272C74.8529 86.7731 74.9159 86.8451 75.0106 86.943C75.1026 87.0371 75.1591 87.0995 75.1799 87.1301C75.3258 87.3444 75.3566 87.5419 75.2724 87.7225C75.2259 87.8269 75.1471 87.9169 75.0361 87.9925C74.8639 88.1097 74.6941 88.1441 74.5267 88.0957C74.3567 88.0434 74.2248 87.9484 74.131 87.8106C73.9487 87.5427 73.923 87.1513 74.0542 86.6364C74.1865 86.1151 74.5722 85.6369 75.2113 85.2018C75.9538 84.6964 76.6212 84.5949 77.2135 84.8973C77.5348 85.065 77.8675 85.4014 78.2113 85.9066L79.7784 88.2085C79.9295 88.4305 80.049 88.5732 80.1369 88.6365C80.2883 88.7519 80.4424 88.7562 80.5993 88.6494C80.6873 88.5894 80.7509 88.5265 80.7901 88.4607C80.8293 88.3948 80.8845 88.262 80.9557 88.0623L81.1589 88.3608C81.1381 88.5934 81.0894 88.8058 81.0129 88.9978C80.8976 89.2891 80.729 89.5104 80.507 89.6615C80.2468 89.8386 80 89.8834 79.7668 89.7958C79.5373 89.7055 79.3374 89.5476 79.167 89.322C79.0481 89.7725 78.927 90.1294 78.8037 90.3925C78.5962 90.8363 78.3355 91.165 78.0216 91.3786C77.6925 91.6026 77.3293 91.6819 76.9318 91.6164C76.5318 91.5471 76.2107 91.3345 75.9684 90.9786Z" fill="#333333"/>
<path d="M84.4319 86.4513C84.6445 86.1576 84.7571 85.9365 84.7698 85.7879C84.79 85.5601 84.6482 85.314 84.3444 85.0496L81.6359 82.693C81.3774 82.4681 81.1776 82.3556 81.0365 82.3556C80.8985 82.3521 80.761 82.4289 80.6243 82.586C80.5605 82.6594 80.5154 82.7183 80.4889 82.7628C80.4655 82.8038 80.4413 82.8563 80.4162 82.9204L80.2328 82.7609L80.4353 82.2743C80.5084 82.0986 80.6208 81.8036 80.7725 81.3895C80.9242 80.9753 81.0077 80.7595 81.0229 80.742C81.0381 80.7246 81.0559 80.7217 81.0764 80.7334C81.0969 80.7451 81.1316 80.7722 81.1805 80.8148L81.8878 81.4301C81.8743 80.8109 81.9176 80.3238 82.0176 79.9691C82.1142 79.6112 82.2779 79.2996 82.5089 79.0342C82.8219 78.6744 83.1933 78.4944 83.6232 78.4941C83.8531 78.4978 84.1135 78.5617 84.4044 78.6859C84.3673 78.1995 84.3695 77.8056 84.4109 77.5041C84.483 76.9839 84.6695 76.5509 84.9704 76.2052C85.4596 75.6429 86.0151 75.4664 86.6367 75.6759C86.9893 75.7925 87.4451 76.0939 88.0039 76.5802L90.178 78.4719C90.426 78.6876 90.6425 78.7809 90.8275 78.7516C91.0121 78.7158 91.2429 78.5669 91.52 78.3048L91.6563 78.4233L89.6005 80.7861L89.4538 80.6584C89.6902 80.3303 89.8023 80.078 89.7901 79.9016C89.7809 79.7218 89.6313 79.5058 89.3414 79.2535L87.0835 77.2889C86.7447 76.9942 86.463 76.8135 86.2386 76.7471C85.8397 76.6271 85.4762 76.7558 85.148 77.133C84.9505 77.36 84.8296 77.6506 84.7853 78.0048C84.7602 78.21 84.7616 78.4905 84.7896 78.8462L87.4719 81.18C87.7548 81.4262 88.0121 81.5642 88.2439 81.594C88.4787 81.6204 88.7412 81.4774 89.0312 81.1652L89.1674 81.2837L87.0752 83.6884L86.939 83.5699C87.1857 83.2016 87.2893 82.9204 87.2495 82.7263C87.2098 82.5322 86.9577 82.233 86.4931 81.8289L85.0263 80.5525C84.4884 80.0845 84.0878 79.7974 83.8244 79.691C83.3819 79.5084 82.998 79.604 82.6729 79.9777C82.4875 80.1907 82.3645 80.4519 82.304 80.7613C82.24 81.0677 82.2339 81.3815 82.2857 81.7027L85.1514 84.1961C85.4168 84.4271 85.6397 84.5412 85.82 84.5385C86.0033 84.5324 86.232 84.3754 86.5059 84.0676L86.6421 84.1861L84.5681 86.5698L84.4319 86.4513Z" fill="#333333"/>
<path d="M89.0195 69.4793C89.3087 68.894 89.7654 68.482 90.3896 68.243C91.0096 68.002 91.691 68.0651 92.434 68.4322L90.4804 72.3855C91.4638 72.8198 92.2729 72.9486 92.9077 72.7717C93.5425 72.5948 93.9932 72.2366 94.2598 71.697C94.4752 71.2612 94.5426 70.8375 94.462 70.4259C94.3814 70.0142 94.194 69.5782 93.8999 69.1179L94.0823 68.9369C94.5253 69.3676 94.8551 69.9282 95.0716 70.6187C95.2901 71.305 95.2322 71.9865 94.8979 72.663C94.5123 73.4433 93.9192 73.9016 93.1186 74.0378C92.32 74.1699 91.5368 74.0462 90.769 73.6668C89.9347 73.2545 89.3367 72.6517 88.9748 71.8584C88.6129 71.065 88.6278 70.272 89.0195 69.4793ZM89.2956 70.0649C89.0618 70.5381 89.0929 71.0027 89.3891 71.4589C89.5475 71.7025 89.7826 71.9374 90.0942 72.1637L91.3925 69.5365C90.9549 69.377 90.6067 69.3031 90.348 69.3147C89.8822 69.3375 89.5314 69.5876 89.2956 70.0649Z" fill="#333333"/>
<path d="M92.2087 61.1557L92.6894 61.2934L92.2992 62.6553L96.1406 63.7703C96.4789 63.8672 96.7431 63.9116 96.9332 63.9035C97.2709 63.8846 97.4844 63.7194 97.5736 63.4079C97.6195 63.2477 97.6212 63.0989 97.5787 62.9615C97.5375 62.8196 97.4562 62.6495 97.3349 62.451L97.5315 62.3195L97.6897 62.5237C97.9349 62.8444 98.0851 63.1523 98.1402 63.4474C98.1953 63.7425 98.1885 64.0102 98.1196 64.2506C97.9691 64.7757 97.6335 65.0648 97.1126 65.1179C96.8296 65.1476 96.4634 65.098 96.0139 64.9692L91.9683 63.8102L91.7599 64.5379C91.7401 64.5563 91.7217 64.5703 91.7045 64.5798C91.6886 64.5849 91.6695 64.5842 91.6473 64.5778C91.6028 64.5651 91.5719 64.5466 91.5548 64.5225C91.5345 64.4925 91.4951 64.4114 91.4367 64.2791C91.271 63.8994 91.1294 63.6204 91.0119 63.4423C90.8912 63.2584 90.5646 62.8181 90.0322 62.1214C90.0488 62.0635 90.0628 62.0314 90.0743 62.0251C90.087 62.0143 90.1223 62.0172 90.1801 62.0337L91.8224 62.5042L92.2087 61.1557Z" fill="#333333"/>
<path d="M99.4459 55.8249C99.9094 55.8861 100.319 56.1106 100.674 56.4983C101.029 56.8861 101.268 57.2842 101.392 57.6928L101.099 57.7872C100.909 57.3139 100.681 56.9756 100.414 56.7722C100.147 56.5642 99.9171 56.4475 99.7243 56.422C99.66 56.4136 99.616 56.4288 99.5922 56.4676C99.5684 56.5065 99.5535 56.5489 99.5474 56.5948L99.5347 57.0625C99.5093 57.2552 99.424 57.4238 99.2789 57.568C99.1292 57.7117 98.935 57.7678 98.6963 57.7363C98.5127 57.7121 98.3425 57.6219 98.1856 57.4658C98.0288 57.3097 97.9704 57.0802 98.0103 56.7772C98.0485 56.4881 98.1975 56.2439 98.4572 56.0447C98.7124 55.8449 99.042 55.7716 99.4459 55.8249Z" fill="#333333"/>
<path d="M92.4873 43.5753C92.3816 43.0064 92.4386 42.4896 92.6583 42.025C92.8727 41.5566 93.1551 41.2899 93.5056 41.2248C93.6558 41.1969 93.8066 41.223 93.9581 41.3032C94.105 41.3842 94.1987 41.5339 94.2393 41.7524C94.2689 41.9117 94.2405 42.063 94.1541 42.2062C94.0668 42.3448 93.9236 42.4609 93.7244 42.5544L93.4119 42.6972C93.1816 42.8012 93.03 42.9353 92.9569 43.0996C92.8892 43.2676 92.8782 43.4745 92.9239 43.7202C93.0203 44.2391 93.3295 44.6361 93.8514 44.9111C94.368 45.1824 95.0018 45.2483 95.7529 45.1088C96.4402 44.9811 97.0205 44.6707 97.494 44.1778C97.9666 43.6803 98.1408 43.097 98.0165 42.428C97.9285 41.9546 97.6955 41.5623 97.3175 41.2511C97.1011 41.0747 96.7749 40.8905 96.339 40.6984L96.4195 40.4856C97.0139 40.6436 97.4971 40.8363 97.869 41.0639C98.5812 41.5013 99.0046 42.0819 99.1391 42.8056C99.271 43.5157 99.1078 44.1958 98.6494 44.846C98.191 45.4963 97.4816 45.9106 96.5212 46.089C95.579 46.2641 94.7134 46.1165 93.9245 45.6462C93.1355 45.176 92.6564 44.4857 92.4873 43.5753Z" fill="#333333"/>
<path d="M94.3622 37.2061C93.5121 37.5613 92.6821 37.5921 91.872 37.2984C91.0558 37.0022 90.4701 36.429 90.1149 35.579C89.7615 34.7332 89.7465 33.9166 90.0698 33.1293C90.393 32.3419 91.016 31.7555 91.9387 31.3699C92.7888 31.0148 93.6402 30.9751 94.493 31.2509C95.3459 31.5268 95.9508 32.0919 96.3077 32.9462C96.6504 33.7664 96.6393 34.5864 96.2744 35.4062C95.9095 36.226 95.2721 36.826 94.3622 37.2061ZM90.5743 35.5977C90.7153 35.9352 90.9487 36.1814 91.2743 36.3363C91.8415 36.6011 92.6014 36.5345 93.554 36.1364C94.3144 35.8187 94.9521 35.3516 95.4671 34.735C95.9804 34.1141 96.1094 33.4982 95.8542 32.8874C95.6543 32.409 95.2808 32.1335 94.7337 32.0611C94.1848 31.9843 93.5537 32.095 92.8404 32.3931C92.1014 32.7018 91.4738 33.1572 90.9577 33.7592C90.4415 34.3612 90.3137 34.9741 90.5743 35.5977Z" fill="#333333"/>
<path d="M92.8359 26.7605C92.6124 26.5159 92.4141 26.3753 92.241 26.3388C92.0615 26.3011 91.7977 26.405 91.4496 26.6505L88.5725 28.6799C88.3304 28.8506 88.1762 28.9934 88.1098 29.1082C88.0168 29.2815 88.0489 29.4797 88.2064 29.7029C88.2304 29.737 88.2576 29.7716 88.2881 29.8067C88.3159 29.8381 88.3523 29.8776 88.3972 29.9252L88.1986 30.0653C88.0438 29.9422 87.6677 29.658 87.0702 29.2126L86.5181 28.8032C86.4994 28.7768 86.4982 28.755 86.5144 28.7378C86.528 28.7169 86.5518 28.6945 86.5859 28.6704L87.4201 28.0821C86.8492 27.9635 86.4339 27.8485 86.1741 27.7372C85.7805 27.5729 85.4717 27.3318 85.2476 27.014C85.0661 26.7568 84.9745 26.4702 84.9726 26.1542C84.9719 25.5428 85.3404 24.977 86.0782 24.4567L88.7283 22.5874C89.0007 22.3953 89.1587 22.2017 89.2024 22.0066C89.2461 21.8115 89.1791 21.584 89.0014 21.3241L89.1603 21.212L90.8694 23.6351L90.7105 23.7472C90.4779 23.4977 90.2661 23.3581 90.0753 23.3285C89.8806 23.3015 89.5903 23.4241 89.2044 23.6962L86.7813 25.4054C86.4559 25.6348 86.23 25.8848 86.1036 26.1553C85.9733 26.4285 86.0229 26.7277 86.2524 27.0531C86.4098 27.2763 86.6456 27.4499 86.9597 27.574C87.1374 27.6412 87.3986 27.7063 87.7432 27.7691L90.9211 25.5277C91.1935 25.3356 91.3343 25.1456 91.3435 24.9578C91.3489 24.7727 91.2633 24.547 91.0868 24.2806L91.2456 24.1686L92.9948 26.6484L92.8359 26.7605Z" fill="#333333"/>
<path d="M84.8222 19.7235L84.6546 19.5672C84.9368 19.1087 85.1083 18.7146 85.169 18.3849C85.2858 17.7848 85.1157 17.2715 84.6588 16.8451C84.4049 16.6082 84.1405 16.4912 83.8654 16.4941C83.5839 16.4973 83.3388 16.6106 83.1304 16.834C82.9977 16.9762 82.9121 17.1527 82.8735 17.3637C82.835 17.5747 82.8639 17.8423 82.9602 18.1665L83.2257 19.0221C83.4335 19.634 83.5298 20.1449 83.5145 20.5549C83.4992 20.9648 83.3478 21.3238 83.0604 21.6318C82.7066 22.0109 82.2806 22.196 81.7824 22.187C81.2842 22.178 80.8304 21.9824 80.4208 21.6002C80.2414 21.4328 80.0767 21.2158 79.9266 20.9491C79.7732 20.6793 79.6829 20.5317 79.6558 20.5064C79.5949 20.4496 79.543 20.417 79.5001 20.4086C79.4573 20.4003 79.4083 20.4053 79.3533 20.4236L79.2314 20.3098L80.5177 18.8602L80.6751 19.007C80.4364 19.3985 80.2893 19.7394 80.2339 20.0295C80.1279 20.5638 80.2729 21.0158 80.6689 21.3853C80.9058 21.6064 81.1599 21.7074 81.4311 21.6882C81.7023 21.669 81.9295 21.5612 82.1127 21.3649C82.4033 21.0535 82.4287 20.558 82.1891 19.8784L81.8553 18.8926C81.5007 17.8271 81.5666 17.0338 82.0531 16.5126C82.4258 16.1132 82.8812 15.9271 83.4193 15.9544C83.9541 15.9785 84.4635 16.2163 84.9475 16.668C85.1506 16.8575 85.3491 17.1062 85.5432 17.4139C85.7373 17.7217 85.858 17.8976 85.9054 17.9419C85.946 17.9798 85.9958 17.9977 86.0546 17.9957C86.1104 17.997 86.1657 17.9853 86.2205 17.9604L86.3525 18.0836L84.8222 19.7235Z" fill="#333333"/>
<path d="M28.6022 10.3635C28.2644 10.6256 28.0672 10.8409 28.0108 11.0096C27.9568 11.1822 28.0303 11.424 28.2311 11.7352L29.9292 14.3668C30.1777 14.7519 30.3917 15.0023 30.571 15.118C30.749 15.2401 30.9332 15.2396 31.1238 15.1166C31.1627 15.0915 31.2115 15.0518 31.2701 14.9975C31.3273 14.9495 31.3859 14.8952 31.4459 14.8344L31.5701 15.027C31.3986 15.2479 31.2225 15.4744 31.0418 15.7067C30.8611 15.939 30.7374 16.1016 30.6705 16.1943C30.5237 16.3937 30.3773 16.6066 30.2314 16.833C30.2042 16.8506 30.1823 16.8509 30.1659 16.834C30.1456 16.8196 30.1153 16.7812 30.0751 16.719L29.4576 15.7621C29.4321 16.2689 29.3673 16.6936 29.2633 17.0362C29.1554 17.3813 28.977 17.6342 28.728 17.7949C28.5297 17.9229 28.3293 17.9668 28.127 17.9265C27.9272 17.8901 27.7696 17.7825 27.6541 17.6035C27.5512 17.4441 27.5132 17.2785 27.5402 17.1068C27.5633 16.9376 27.6468 16.8066 27.7907 16.7137C27.9385 16.6184 28.1322 16.5898 28.3718 16.628C28.6075 16.6688 28.7681 16.6616 28.8537 16.6063C28.9898 16.5185 29.0855 16.2997 29.1409 15.9499C29.1987 15.6041 29.1523 15.3145 29.0017 15.0811L27.3035 12.4495C27.0877 12.1149 26.8592 11.9318 26.6183 11.8999C26.3799 11.8719 26.0823 11.9786 25.7255 12.2198L25.6013 12.0272L28.4779 10.171L28.6022 10.3635Z" fill="#333333"/>
<path d="M53.3038 38.6742C46.7854 38.6742 41.4521 44.0075 41.4521 50.5259C41.4521 57.0443 46.7854 62.3776 53.3038 62.3776C59.8223 62.3776 65.1555 57.0443 65.1555 50.5259C65.1555 44.0075 59.8223 38.6742 53.3038 38.6742ZM58.2816 55.5036L52.1187 51.7111V44.6H53.8964V50.7629L59.2297 53.9629L58.2816 55.5036Z" fill="black"/>
</g>
<defs>
<filter id="filter0_d_846_582" x="0.750977" y="3.59303" width="104.85" height="103.391" filterUnits="userSpaceOnUse" color-interpolation-filters="sRGB">
<feFlood flood-opacity="0" result="BackgroundImageFix"/>
<feColorMatrix in="SourceAlpha" type="matrix" values="0 0 0 0 0 0 0 0 0 0 0 0 0 0 0 0 0 0 127 0" result="hardAlpha"/>
<feOffset dy="4"/>
<feGaussianBlur stdDeviation="2"/>
<feComposite in2="hardAlpha" operator="out"/>
<feColorMatrix type="matrix" values="0 0 0 0 0 0 0 0 0 0 0 0 0 0 0 0 0 0 0.25 0"/>
<feBlend mode="normal" in2="BackgroundImageFix" result="effect1_dropShadow_846_582"/>
<feBlend mode="normal" in="SourceGraphic" in2="effect1_dropShadow_846_582" result="shape"/>
</filter>
</defs>
</svg>
