<svg width="416" height="140" viewBox="0 0 416 140" fill="none" xmlns="http://www.w3.org/2000/svg">
<path d="M23.7431 108.202C21.7557 106.773 19.7762 106.648 17.8047 107.829C16.7417 108.459 15.7046 109.478 14.6936 110.884C14.2146 111.55 13.9869 112.012 14.0103 112.269C14.0307 112.508 14.2682 112.791 14.7228 113.118L23.1905 119.207C23.6614 118.664 23.9668 118.306 24.1066 118.134C24.2464 117.962 24.3771 117.791 24.4987 117.622C25.5706 116.131 26.203 114.806 26.3959 113.646C26.7416 111.537 25.8574 109.722 23.7431 108.202ZM29.0173 132.515C29.7905 131.194 30.1023 130.248 29.9527 129.675C29.7926 129.095 29.0413 128.322 27.6987 127.357L13.6335 117.242C12.5023 116.429 11.6316 116.067 11.0213 116.158C10.4186 116.238 9.65163 116.825 8.72028 117.919L8.11771 117.486L14.2752 108.923C16.2517 106.175 18.2983 104.455 20.4151 103.764C22.5318 103.073 24.4624 103.354 26.2066 104.609C28.4161 106.197 29.4361 108.158 29.2667 110.49C29.0973 112.822 28.1384 115.203 26.39 117.635C26.1391 117.984 25.8108 118.429 25.4049 118.971C24.9961 119.495 24.6966 119.889 24.5066 120.154L30.4054 124.395C31.6317 125.277 32.5364 125.647 33.1196 125.505C33.7105 125.353 34.5209 124.661 35.5511 123.429L36.1378 123.851L29.604 132.937L29.0173 132.515Z" fill="#0D261B"/>
<path d="M45.9043 110.388C46.6225 109.406 46.9884 108.633 47.0021 108.07C47.0061 107.498 46.6047 106.852 45.7978 106.133L31.5519 93.4375C30.9104 92.8658 30.4204 92.5251 30.0821 92.4154C29.5006 92.246 28.9456 92.4578 28.4171 93.0508C28.2958 93.1868 28.1762 93.3505 28.058 93.5418C27.9486 93.7233 27.8148 93.9615 27.6565 94.2565L27.1753 93.8277C27.9949 92.2035 28.936 90.2081 29.9987 87.8413C30.0594 87.7733 30.1232 87.7604 30.1902 87.8027C30.2658 87.8352 30.4008 87.9381 30.5953 88.1113L48.0782 103.692C48.9239 104.445 49.6031 104.789 50.1157 104.723C50.6187 104.648 51.3113 104.183 52.1937 103.33L52.6019 103.694L46.3126 110.752L45.9043 110.388Z" fill="#0D261B"/>
<path d="M57.9203 83.2475C57.162 84.6302 56.6296 85.8735 56.3234 86.9774C55.7414 89.1034 55.9518 90.7047 56.9548 91.7813C57.7624 92.6483 58.6429 93.0203 59.5962 92.8975C60.2163 92.8181 60.755 92.5654 61.2123 92.1393C61.8411 91.5536 62.2771 90.8181 62.5203 89.9331C62.7731 89.0392 62.6465 88.3207 62.1406 87.7777L57.9203 83.2475ZM55.3296 95.1371C54.0427 93.7557 53.6595 91.9594 54.18 89.7483C54.524 88.3601 55.5488 85.955 57.2547 82.5329L56.123 81.3182C55.2177 80.3465 54.4923 79.7588 53.9467 79.5552C53.0281 79.2186 52.0591 79.5252 51.0397 80.4749C50.5538 80.9275 50.2072 81.4819 49.9997 82.1378C49.8011 82.8033 49.9103 83.36 50.3275 83.8078C50.434 83.9221 50.6397 84.0952 50.9448 84.3271C51.2409 84.5495 51.4245 84.6988 51.4955 84.775C51.9925 85.3085 52.1624 85.8443 52.0052 86.3823C51.9205 86.6925 51.74 86.9763 51.4637 87.2337C51.035 87.6331 50.5776 87.8012 50.0916 87.7379C49.5966 87.6651 49.1894 87.4572 48.8699 87.1142C48.2486 86.4473 48.0104 85.3702 48.1552 83.8828C48.3006 82.3771 49.1689 80.8831 50.7599 79.4009C52.6082 77.679 54.4202 77.1121 56.1959 77.7001C57.1608 78.0291 58.229 78.8224 59.4006 80.08L64.7392 85.8106C65.254 86.3632 65.6471 86.7088 65.9186 86.8474C66.3886 87.1035 66.8189 87.0497 67.2095 86.6858C67.4286 86.4817 67.5786 86.2797 67.6594 86.0799C67.7402 85.88 67.837 85.4873 67.9498 84.9017L68.6421 85.6448C68.6834 86.3004 68.6387 86.9115 68.5081 87.478C68.3119 88.3371 67.9375 89.024 67.3849 89.5388C66.737 90.1423 66.0702 90.3721 65.3843 90.228C64.708 90.0751 64.0848 89.7213 63.5148 89.1668C63.3765 90.4701 63.1922 91.5139 62.9617 92.298C62.574 93.6202 61.9895 94.6451 61.2083 95.3729C60.389 96.1362 59.4129 96.5116 58.2802 96.4992C57.1386 96.4772 56.1551 96.0231 55.3296 95.1371Z" fill="#0D261B"/>
<path d="M73.8265 82.8577C74.499 82.2125 74.8807 81.6454 74.9717 81.1563C75.0654 80.6489 74.7552 79.9143 74.0412 78.9524L68.1391 71.0012C67.6425 70.3321 67.2305 69.9081 66.9032 69.7294C66.4097 69.4796 65.8545 69.5836 65.2376 70.0415C65.1435 70.1113 65.0481 70.1903 64.9513 70.2784C64.8649 70.3587 64.7564 70.4636 64.6255 70.5932L64.2181 70.0443C64.5536 69.6006 65.3272 68.5237 66.5388 66.8135L67.6521 65.2331C67.7253 65.1788 67.7865 65.1739 67.8358 65.2184C67.8955 65.2551 67.9603 65.3206 68.0301 65.4147L69.7414 67.72C70.0358 66.1069 70.3307 64.9313 70.626 64.1931C71.0613 63.0755 71.718 62.1907 72.5963 61.5388C73.3072 61.0111 74.1068 60.7338 74.9949 60.7069C76.7139 60.6634 78.3301 61.661 79.8434 63.6997L85.2799 71.0237C85.8386 71.7764 86.3938 72.2076 86.9454 72.3171C87.4969 72.4266 88.132 72.2227 88.8508 71.7054L89.1767 72.1445L82.4801 77.1153L82.1542 76.6762C82.8398 76.0051 83.2178 75.4002 83.2882 74.8615C83.3508 74.3123 82.9863 73.5045 82.1947 72.4381L77.2239 65.7415C76.5565 64.8423 75.8382 64.2242 75.069 63.887C74.2921 63.5394 73.454 63.6993 72.5549 64.3668C71.938 64.8246 71.4659 65.4994 71.1386 66.391C70.9616 66.8953 70.7965 67.6341 70.6432 68.6073L77.1623 77.3897C77.7211 78.1425 78.2647 78.5254 78.7933 78.5385C79.3142 78.5411 79.943 78.2851 80.68 77.7705L81.0059 78.2096L74.1525 83.2968L73.8265 82.8577Z" fill="#0D261B"/>
<path d="M93.0444 48.7117L93.7686 49.9171L90.3533 51.9691L96.1137 61.6326C96.6233 62.4808 97.0814 63.079 97.4881 63.4271C98.2186 64.0363 98.9746 64.1062 99.7559 63.6368C100.158 63.3954 100.447 63.0926 100.623 62.7285C100.81 62.3577 100.97 61.8518 101.101 61.2109L101.758 61.3177L101.691 62.0412C101.58 63.1712 101.298 64.0925 100.845 64.8051C100.392 65.5177 99.8645 66.0551 99.2618 66.4172C97.9448 67.2085 96.6998 67.159 95.5269 66.2687C94.888 65.7868 94.2299 64.9822 93.5526 63.8549L87.4569 53.7093L85.6321 54.8057C85.5561 54.8058 85.4914 54.7991 85.4378 54.7858C85.3953 54.7657 85.3573 54.7277 85.3238 54.6719C85.2568 54.5603 85.2288 54.4632 85.2399 54.3806C85.2555 54.2801 85.3301 54.0377 85.4639 53.6536C85.8518 52.5547 86.0958 51.7093 86.1959 51.1175C86.3005 50.5078 86.4738 48.9758 86.7157 46.5216C86.8608 46.4344 86.9512 46.3953 86.9869 46.4042C87.0338 46.4064 87.1009 46.48 87.188 46.6251L89.6625 50.7436L93.0444 48.7117Z" fill="#0D261B"/>
<path d="M127.466 52.3877C126.89 52.6294 126.321 52.6352 125.758 52.4051C125.191 52.163 124.789 51.7598 124.552 51.1954C124.315 50.631 124.312 50.0676 124.542 49.5052C124.784 48.9378 125.187 48.5357 125.752 48.299C126.316 48.0624 126.88 48.0591 127.442 48.2892C128.004 48.5193 128.404 48.9165 128.641 49.4809C128.877 50.0453 128.883 50.6147 128.658 51.1891C128.44 51.7465 128.043 52.146 127.466 52.3877Z" fill="#0D261B"/>
<path d="M143.638 18.1021L165.677 13.1065L167.389 19.6877L166.456 19.8993C165.526 17.9203 164.636 16.7003 163.784 16.2393C162.941 15.7627 161.39 15.7805 159.13 16.2929L156.958 16.7851L161.483 36.7474C161.826 38.2586 162.274 39.145 162.827 39.4068C163.377 39.6559 164.459 39.6576 166.072 39.4121L166.232 40.1169L154.86 42.6946L154.701 41.9898C156.323 41.4886 157.289 40.9824 157.601 40.4713C157.912 39.9601 157.876 38.86 157.494 37.1711L153.072 17.6659L150.901 18.1582C148.742 18.6475 147.339 19.2925 146.693 20.0932C146.06 20.8911 145.784 22.3822 145.865 24.5667L144.912 24.7826L143.638 18.1021Z" fill="#0D261B"/>
<path d="M177.788 37.4487C178.968 37.2147 179.735 36.9211 180.089 36.5679C180.442 36.2018 180.561 35.501 180.448 34.4655L179.488 25.7093C179.348 24.428 179.125 23.5289 178.82 23.0122C178.526 22.4812 178.062 22.2504 177.427 22.3199C177.298 22.3341 177.125 22.3727 176.91 22.4356C176.705 22.4842 176.489 22.5471 176.262 22.6244L176.192 21.9837C176.901 21.644 177.63 21.2957 178.376 20.9388C179.123 20.5819 179.639 20.3289 179.924 20.1798C180.544 19.863 181.18 19.5116 181.832 19.1258C181.923 19.1159 181.978 19.1426 181.998 19.2059C182.031 19.2678 182.059 19.4023 182.082 19.6094L182.431 22.7934C183.133 21.5507 183.83 20.5639 184.523 19.8331C185.229 19.1008 185.996 18.6893 186.824 18.5985C187.484 18.5262 188.043 18.668 188.501 19.0238C188.958 19.3668 189.219 19.8359 189.284 20.4313C189.343 20.962 189.23 21.4263 188.946 21.8241C188.675 22.2206 188.3 22.4451 187.821 22.4975C187.329 22.5514 186.806 22.3795 186.252 21.9818C185.71 21.5827 185.297 21.3987 185.012 21.4299C184.559 21.4795 184.043 21.9094 183.464 22.7195C182.883 23.5167 182.635 24.3035 182.72 25.0802L183.68 33.8363C183.802 34.9495 184.146 35.6977 184.712 36.0811C185.276 36.4515 186.159 36.5578 187.36 36.4L187.43 37.0407L177.858 38.0894L177.788 37.4487Z" fill="#0D261B"/>
<path d="M205.173 17.7811C207.009 17.7598 208.625 18.3791 210.02 19.6391C211.414 20.886 212.125 22.6747 212.152 25.0053L199.751 25.1493C199.916 28.1684 200.625 30.3608 201.878 31.7266C203.131 33.0923 204.604 33.7654 206.296 33.7457C207.663 33.7299 208.812 33.3584 209.741 32.6315C210.67 31.9045 211.524 30.8789 212.303 29.5546L212.989 29.7811C212.474 31.4408 211.49 32.9823 210.035 34.4055C208.593 35.8286 206.811 36.5525 204.688 36.5771C202.241 36.6055 200.336 35.7031 198.973 33.8698C197.624 32.0364 196.935 29.9154 196.907 27.5067C196.876 24.8897 197.625 22.6217 199.152 20.7028C200.68 18.7839 202.687 17.81 205.173 17.7811ZM204.057 19.22C202.573 19.2372 201.448 19.9079 200.682 21.2319C200.273 21.9399 199.984 22.8287 199.814 23.8985L208.056 23.8028C207.898 22.5024 207.639 21.5353 207.28 20.9014C206.629 19.7631 205.554 19.2026 204.057 19.22Z" fill="#0D261B"/>
<path d="M229.69 18.8234C231.518 18.9979 233.058 19.7859 234.31 21.1874C235.564 22.5759 236.081 24.4302 235.859 26.7504L223.513 25.5715C223.355 28.591 223.827 30.8465 224.927 32.3381C226.027 33.8296 227.42 34.6558 229.105 34.8167C230.466 34.9467 231.647 34.6998 232.648 34.076C233.649 33.4522 234.608 32.5235 235.524 31.2898L236.182 31.5881C235.493 33.1835 234.35 34.6113 232.751 35.8713C231.166 37.1325 229.317 37.6623 227.204 37.4605C224.767 37.2279 222.969 36.1275 221.81 34.1594C220.663 32.1926 220.205 30.0102 220.434 27.6122C220.683 25.0069 221.669 22.8316 223.392 21.0865C225.115 19.3414 227.214 18.587 229.69 18.8234ZM228.427 20.135C226.949 19.9939 225.759 20.5408 224.856 21.7757C224.375 22.4361 223.992 23.289 223.709 24.3345L231.914 25.118C231.895 23.8082 231.741 22.819 231.452 22.1505C230.926 20.9492 229.917 20.2774 228.427 20.135Z" fill="#0D261B"/>
<path d="M262.008 43.6621C261.403 43.5056 260.946 43.1655 260.638 42.6419C260.333 42.1057 260.257 41.5414 260.41 40.9489C260.563 40.3564 260.902 39.906 261.425 39.5976C261.961 39.2925 262.526 39.2165 263.118 39.3697C263.711 39.523 264.161 39.8614 264.469 40.385C264.778 40.9086 264.855 41.4666 264.702 42.0591C264.549 42.6516 264.209 43.1083 263.682 43.4293C263.171 43.741 262.613 43.8186 262.008 43.6621Z" fill="#0D261B"/>
<path d="M284.69 49.329C286.26 49.8748 287.379 49.9871 288.046 49.6661C288.718 49.3333 289.501 48.2112 290.392 46.2996L297.849 30.3168L297.626 29.5015C297.387 28.6284 297.112 28.0329 296.8 27.7151C296.506 27.3911 295.992 27.0438 295.26 26.6734L295.574 26.0008L301.786 28.8993L307.609 52.8666L313.266 40.7423C314.196 38.7482 314.507 37.3126 314.198 36.4355C313.99 35.8644 313.247 35.2089 311.969 34.4688L312.282 33.7962L320.796 37.7682L320.482 38.4408C319.035 37.9383 317.958 37.8452 317.25 38.1615C316.542 38.4777 315.745 39.5858 314.859 41.4855L305.957 60.5658L305.337 60.2768L298.575 32.9185L291.985 47.0428C291.06 49.0252 290.747 50.4521 291.044 51.3237C291.24 51.8892 291.96 52.5483 293.204 53.301L292.898 53.9559L284.385 49.9839L284.69 49.329Z" fill="#0D261B"/>
<path d="M329.538 61.6156C328.01 61.2258 326.674 61.0202 325.528 60.9987C323.324 60.965 321.826 61.568 321.033 62.8076C320.395 63.8059 320.254 64.7513 320.611 65.6439C320.842 66.2246 321.221 66.6833 321.748 67.02C322.472 67.4829 323.293 67.7218 324.21 67.7368C325.139 67.7588 325.803 67.4571 326.203 66.8318L329.538 61.6156ZM317.378 62.0702C318.395 60.4795 320.039 59.6607 322.31 59.6136C323.741 59.6008 326.325 59.9938 330.064 60.7928L330.959 59.3941C331.674 58.2752 332.063 57.4261 332.124 56.8471C332.221 55.8736 331.682 55.0116 330.508 54.2611C329.949 53.9033 329.326 53.7058 328.639 53.6683C327.945 53.6419 327.433 53.8864 327.103 54.402C327.019 54.5337 326.903 54.7761 326.754 55.1293C326.613 55.4715 326.514 55.6865 326.458 55.7743C326.065 56.3886 325.588 56.6867 325.028 56.6685C324.707 56.6638 324.387 56.5597 324.069 56.3563C323.575 56.0407 323.298 55.6396 323.238 55.1532C323.185 54.6557 323.285 54.2095 323.538 53.8146C324.029 53.0467 325.013 52.5475 326.489 52.317C327.984 52.0825 329.647 52.551 331.479 53.7224C333.607 55.0831 334.608 56.6966 334.481 58.5628C334.403 59.5793 333.901 60.8116 332.975 62.2596L328.756 68.8581C328.349 69.4944 328.112 69.9612 328.046 70.2587C327.915 70.7777 328.074 71.181 328.524 71.4686C328.776 71.6299 329.009 71.7248 329.223 71.7532C329.437 71.7816 329.841 71.7775 330.436 71.7409L329.889 72.5965C329.265 72.7999 328.662 72.9089 328.08 72.9237C327.2 72.9477 326.441 72.7564 325.805 72.3495C325.059 71.8726 324.67 71.284 324.639 70.5839C324.618 69.8908 324.805 69.1991 325.2 68.5089C323.904 68.6998 322.847 68.7815 322.03 68.7537C320.653 68.7078 319.515 68.3973 318.615 67.8221C317.672 67.2189 317.065 66.3672 316.795 65.2671C316.531 64.156 316.726 63.0904 317.378 62.0702Z" fill="#0D261B"/>
<path d="M352.031 69.1002L351.167 70.2096L348.023 67.7611L341.079 76.6123C340.471 77.393 340.078 78.0357 339.9 78.5403C339.594 79.4411 339.801 80.1716 340.52 80.7317C340.89 81.0198 341.276 81.1805 341.679 81.2139C342.092 81.2553 342.622 81.222 343.267 81.114L343.404 81.765L342.705 81.9632C341.61 82.2662 340.649 82.3346 339.822 82.1684C338.994 82.0022 338.302 81.7031 337.748 81.271C336.536 80.3268 336.134 79.1474 336.543 77.7328C336.762 76.9632 337.276 76.0597 338.085 75.0222L345.358 65.6847L343.678 64.3765C343.651 64.3057 343.634 64.2429 343.627 64.188C343.631 64.1412 343.652 64.0921 343.692 64.0408C343.772 63.938 343.853 63.877 343.934 63.8577C344.033 63.836 344.286 63.8185 344.693 63.8051C345.858 63.7717 346.734 63.6952 347.322 63.5757C347.929 63.454 349.421 63.0645 351.798 62.4073C351.931 62.5113 352 62.5816 352.005 62.6181C352.02 62.6627 351.975 62.7517 351.871 62.8853L348.918 66.6757L352.031 69.1002Z" fill="#0D261B"/>
<path d="M362.991 78.4506L354.386 87.5171C353.776 88.1594 353.377 88.7592 353.189 89.3168C352.857 90.3662 353.159 91.3346 354.094 92.222C354.736 92.8315 355.566 93.2151 356.583 93.3727C357.157 93.4683 357.82 93.4786 358.573 93.4037L365.942 85.6404C366.632 84.9132 366.943 84.3018 366.875 83.8062C366.806 83.3106 366.37 82.6359 365.564 81.7819L366.008 81.3144L370.584 85.6573L361.118 95.6305C360.509 96.2728 360.201 96.8242 360.195 97.2849C360.207 97.7451 360.599 98.3151 361.372 98.9949L360.996 99.3915C360.342 99.0402 359.856 98.7858 359.539 98.6283C359.231 98.4613 358.699 98.1989 357.943 97.841C357.617 97.693 356.886 97.3851 355.75 96.9174C355.703 96.8726 355.697 96.8221 355.732 96.7659C355.759 96.7192 355.799 96.6675 355.853 96.6108L358.017 94.33C356.649 94.4855 355.526 94.4964 354.647 94.3627C353.307 94.1675 352.188 93.6441 351.291 92.7926C350.469 92.0127 349.972 90.9849 349.801 89.7092C349.611 88.4339 350.161 87.1163 351.452 85.7563L358.43 78.4039C359.147 77.6483 359.466 76.9907 359.387 76.4309C359.332 76.0732 358.996 75.5385 358.378 74.827L358.755 74.4304L362.991 78.4506Z" fill="#0D261B"/>
<path d="M364.235 104.244C365.095 105.085 365.77 105.552 366.262 105.645C366.763 105.729 367.409 105.432 368.199 104.754L374.883 99.0166C375.861 98.177 376.477 97.4852 376.731 96.9413C377.003 96.3988 376.932 95.8855 376.516 95.4014C376.431 95.3026 376.302 95.1819 376.128 95.0394C375.973 94.8983 375.799 94.7557 375.607 94.6118L376.096 94.192C376.777 94.5856 377.475 94.9897 378.192 95.4044C378.908 95.8191 379.408 96.1019 379.692 96.2528C380.304 96.5857 380.953 96.9122 381.64 97.2323C381.699 97.3014 381.708 97.3622 381.667 97.4144C381.635 97.4766 381.54 97.5755 381.382 97.7112L378.951 99.7975C380.373 99.6751 381.582 99.6933 382.576 99.8521C383.579 100.021 384.352 100.421 384.894 101.054C385.327 101.558 385.526 102.099 385.491 102.678C385.466 103.249 385.226 103.729 384.772 104.119C384.367 104.467 383.92 104.636 383.431 104.627C382.951 104.627 382.554 104.444 382.24 104.079C381.918 103.703 381.764 103.174 381.779 102.492C381.803 101.82 381.721 101.375 381.535 101.158C381.238 100.812 380.591 100.629 379.596 100.608C378.61 100.579 377.821 100.819 377.228 101.328L370.544 107.066C369.694 107.795 369.271 108.501 369.274 109.185C369.288 109.86 369.698 110.649 370.507 111.55L370.018 111.97L363.746 104.664L364.235 104.244Z" fill="#0D261B"/>
<path d="M395.933 115.734C396.988 117.237 397.389 118.92 397.137 120.783C396.896 122.638 395.821 124.235 393.913 125.573L386.79 115.421C384.392 117.262 382.983 119.086 382.564 120.891C382.144 122.697 382.421 124.292 383.393 125.678C384.178 126.797 385.133 127.535 386.258 127.891C387.383 128.247 388.711 128.372 390.244 128.267L390.445 128.961C388.785 129.474 386.956 129.532 384.96 129.135C382.971 128.749 381.367 127.687 380.148 125.95C378.742 123.946 378.411 121.864 379.154 119.705C379.905 117.555 381.266 115.789 383.238 114.405C385.381 112.902 387.675 112.239 390.121 112.415C392.567 112.592 394.505 113.698 395.933 115.734ZM394.115 115.626C393.263 114.411 392.074 113.861 390.549 113.977C389.734 114.039 388.837 114.303 387.858 114.767L392.592 121.514C393.576 120.649 394.228 119.889 394.548 119.235C395.12 118.054 394.975 116.851 394.115 115.626Z" fill="#0D261B"/>
</svg>
